#!OML:ASF I:\Actors\actors\Patient Classification 2\Patient 1\Session 1\actor1.ASF
:FULLY-SPECIFIED
:DEGREES
1067
root -1.00346 17.8798 6.79729 -4.52136 -5.06799 -2.82136
lowerback -0.822257 2.75442 0.67864
upperback 1.91528 3.63658 1.22143
thorax 2.38742 1.81666 0.977226
lowerneck -15.8619 -1.93808 -1.1921
upperneck 34.4931 -3.15039 1.7697
head 14.6021 -1.25278 0.405155
rclavicle 1.94731e-014 -9.64106e-015
rhumerus -55.8247 -17.7967 -72.2673
rradius 63.3336
rwrist -7.53483
rhand -31.1116 -34.2839
rfingers 7.12502
rthumb -4.39094 -64.2183
lclavicle 1.94731e-014 -9.64106e-015
lhumerus -48.2518 20.4716 78.5511
lradius 65.7277
lwrist 24.6802
lhand -20.1695 -27.2489
lfingers 7.12502
lthumb 6.17621 2.6411
rfemur 21.853 3.19095 18.774
rtibia -9.12731
rfoot -16.6306 -11.975
rtoes 9.4337
lfemur 27.6968 -8.63842 -17.6296
ltibia -19.4234
lfoot -9.32901 25.4876
ltoes -5.70426
1068
root -1.01301 17.8795 6.77069 -4.98261 -4.99503 -2.73849
lowerback -0.433367 2.70917 0.657872
upperback 2.34267 3.57473 1.32171
thorax 2.60185 1.78409 1.08343
lowerneck -16.0265 -1.87807 -1.27658
upperneck 35.3177 -2.95198 1.50126
head 15.0181 -1.20844 0.342979
rclavicle 2.27892e-014 -3.27995e-015
rhumerus -54.1205 -15.6399 -74.8666
rradius 54.6846
rwrist -11.4435
rhand -30.773 -36.7374
rfingers 7.12502
rthumb -4.06398 -66.6784
lclavicle 2.27892e-014 -3.27995e-015
lhumerus -46.5816 18.7612 80.3745
lradius 57.5797
lwrist 29.0367
lhand -21.0368 -21.0699
lfingers 7.12502
lthumb 5.33878 8.84283
rfemur 22.3989 3.13042 18.7219
rtibia -9.35716
rfoot -16.4848 -12.0949
rtoes 9.40681
lfemur 27.988 -8.33442 -17.6316
ltibia -19.305
lfoot -9.01342 25.203
ltoes -6.17935
1069
root -1.02323 17.8774 6.749 -5.32407 -4.90188 -2.68169
lowerback 0.0662812 2.66928 0.674586
upperback 2.55939 3.52364 1.40953
thorax 2.54036 1.7583 1.14349
lowerneck -16.0852 -1.86236 -1.42775
upperneck 35.8743 -2.8385 1.36749
head 15.2967 -1.195 0.33362
rclavicle -3.84424e-014 1.98785e-016
rhumerus -52.7093 -12.3464 -77.6564
rradius 47.5444
rwrist -14.5292
rhand -29.0851 -38.7285
rfingers 7.12502
rthumb -2.43394 -68.6944
lclavicle -3.84424e-014 1.98785e-016
lhumerus -45.0617 15.6139 82.3041
lradius 49.8563
lwrist 31.7067
lhand -21.03 -17.0542
lfingers 7.12502
lthumb 5.34537 12.8584
rfemur 22.772 3.04618 18.6852
rtibia -9.46231
rfoot -16.3896 -12.1546
rtoes 9.52793
lfemur 28.1935 -8.10949 -17.6092
ltibia -19.2364
lfoot -8.78194 24.933
ltoes -6.66102
1070
root -1.03156 17.8736 6.73188 -5.53057 -4.7501 -2.62779
lowerback 0.583034 2.59906 0.751958
upperback 2.64205 3.43494 1.44186
thorax 2.33889 1.71586 1.1077
lowerneck -16.1654 -1.86182 -1.61696
upperneck 36.1958 -2.814 1.45611
head 15.4775 -1.19543 0.408689
rclavicle -5.59694e-014 1.37596e-014
rhumerus -51.8036 -9.50865 -80.0324
rradius 41.6687
rwrist -14.1655
rhand -26.2636 -41.0121
rfingers 7.12502
rthumb 0.291194 -70.9917
lclavicle -5.59694e-014 1.37596e-014
lhumerus -43.9068 11.2506 84.6229
lradius 43.1256
lwrist 31.0236
lhand -19.5607 -14.0587
lfingers 7.12502
lthumb 6.76393 15.8132
rfemur 22.9711 2.90529 18.6272
rtibia -9.47019
rfoot -16.4092 -12.1185
rtoes 9.87384
lfemur 28.2739 -7.85761 -17.5527
ltibia -19.204
lfoot -8.53768 24.5416
ltoes -7.14719
1071
root -1.03845 17.8717 6.72018 -5.54783 -4.57825 -2.5696
lowerback 0.831458 2.47635 0.797645
upperback 2.76176 3.2726 1.45512
thorax 2.32645 1.6356 1.08518
lowerneck -16.4137 -1.83367 -1.70314
upperneck 36.2007 -2.75904 1.5045
head 15.5405 -1.1759 0.451914
rclavicle 2.25058e-014 -2.68359e-015
rhumerus -51.402 -8.32575 -81.6523
rradius 37.4326
rwrist -13.2041
rhand -26.3996 -41.2258
rfingers 7.12502
rthumb 0.159819 -71.2055
lclavicle 2.25058e-014 -2.68359e-015
lhumerus -43.1373 5.92674 87.627
lradius 37.6932
lwrist 28.2806
lhand -18.9637 -13.6358
lfingers 7.12502
lthumb 7.34014 16.2168
rfemur 22.9588 2.7431 18.5471
rtibia -9.43373
rfoot -16.4937 -12.0011
rtoes 10.258
lfemur 28.1773 -7.61544 -17.4791
ltibia -19.174
lfoot -8.30251 24.1364
ltoes -7.42109
1072
root -1.0455 17.8728 6.71683 -5.41251 -4.44962 -2.49765
lowerback 0.785323 2.34687 0.794337
upperback 2.92082 3.0966 1.4505
thorax 2.5184 1.54728 1.08733
lowerneck -16.7425 -1.79264 -1.64564
upperneck 35.9326 -2.6873 1.44846
head 15.4834 -1.14547 0.426944
rclavicle -3.66067e-014 1.35671e-014
rhumerus -51.8314 -9.60887 -81.5624
rradius 35.3956
rwrist -11.4936
rhand -25.3884 -40.6601
rfingers 7.12502
rthumb 1.13641 -70.6368
lclavicle -3.66067e-014 1.35671e-014
lhumerus -42.6463 4.54536 88.9775
lradius 32.7027
lwrist 20.7786
lhand -17.4545 -17.9368
lfingers 7.12502
lthumb 8.79682 11.8598
rfemur 22.7699 2.61979 18.4532
rtibia -9.34455
rfoot -16.5462 -11.8887
rtoes 10.1632
lfemur 27.9688 -7.55982 -17.4747
ltibia -19.1432
lfoot -8.177 23.9511
ltoes -7.66143
1073
root -1.05142 17.8792 6.71898 -5.12673 -4.3281 -2.4349
lowerback 0.591831 2.21434 0.841681
upperback 2.98367 2.91604 1.40043
thorax 2.69907 1.45841 1.01763
lowerneck -16.9367 -1.7674 -1.5348
upperneck 35.5564 -2.6671 1.41485
head 15.3431 -1.1281 0.393946
rclavicle -4.19661e-014 -9.0447e-015
rhumerus -53.2695 -11.965 -80.3406
rradius 35.9987
rwrist -11.8684
rhand -24.0017 -39.7334
rfingers 7.12502
rthumb 2.47573 -69.6987
lclavicle -4.19661e-014 -9.0447e-015
lhumerus -43.7532 5.43628 89.0916
lradius 31.3862
lwrist 13.486
lhand -17.672 -18.603
lfingers 7.12502
lthumb 8.58685 11.2024
rfemur 22.4223 2.49831 18.3626
rtibia -9.23141
rfoot -16.5341 -11.8501
rtoes 9.62519
lfemur 27.6191 -7.66481 -17.4937
ltibia -19.1134
lfoot -8.17252 23.9157
ltoes -7.73707
1074
root -1.05649 17.8897 6.72045 -4.74554 -4.19128 -2.43723
lowerback 0.461017 2.07743 0.948911
upperback 2.90156 2.73144 1.37591
thorax 2.69607 1.36889 0.932709
lowerneck -16.9518 -1.76768 -1.4791
upperneck 35.1799 -2.6672 1.37766
head 15.1638 -1.12884 0.367348
rclavicle -3.5334e-014 5.11871e-015
rhumerus -55.1903 -13.586 -79.2672
rradius 38.0225
rwrist -13.0154
rhand -23.0415 -39.1035
rfingers 7.12502
rthumb 3.403 -69.056
lclavicle -3.5334e-014 5.11871e-015
lhumerus -45.4389 6.47159 88.9499
lradius 32.2154
lwrist 12.1051
lhand -19.6108 -18.6509
lfingers 7.12502
lthumb 6.71552 11.2227
rfemur 21.9918 2.35217 18.3339
rtibia -9.15016
rfoot -16.5201 -11.8255
rtoes 9.40668
lfemur 27.1546 -7.77952 -17.4225
ltibia -19.0666
lfoot -8.21776 23.865
ltoes -7.64598
1075
root -1.06148 17.8991 6.71894 -4.39946 -4.07976 -2.45514
lowerback 0.38486 1.95652 1.05348
upperback 2.82387 2.56832 1.38244
thorax 2.66445 1.28962 0.87896
lowerneck -16.9056 -1.77442 -1.49537
upperneck 34.7654 -2.66878 1.38669
head 14.9569 -1.13384 0.373213
rclavicle -1.77555e-014 -1.32192e-014
rhumerus -57.0359 -14.5547 -78.2735
rradius 40.7077
rwrist -13.6776
rhand -21.4122 -38.9739
rfingers 7.12502
rthumb 4.97637 -68.8955
lclavicle -1.77555e-014 -1.32192e-014
lhumerus -47.9204 6.33967 89.2876
lradius 36.4896
lwrist 19.1086
lhand -21.1538 -16.8727
lfingers 7.12502
lthumb 5.22586 13.0428
rfemur 21.5934 2.2311 18.3253
rtibia -9.07669
rfoot -16.558 -11.7684
rtoes 9.66548
lfemur 26.7307 -8.02446 -17.388
ltibia -18.9995
lfoot -8.32208 23.9772
ltoes -7.70672
1076
root -1.06785 17.91 6.70917 -4.08656 -4.04112 -2.41227
lowerback 0.487281 1.85212 1.0232
upperback 2.69382 2.43278 1.40321
thorax 2.47142 1.22079 0.907377
lowerneck -16.7592 -1.75199 -1.53237
upperneck 34.3526 -2.62933 1.419
head 14.7304 -1.12138 0.400389
rclavicle -1.77974e-014 1.37161e-014
rhumerus -58.9417 -15.0472 -77.2583
rradius 43.8267
rwrist -13.2833
rhand -19.5128 -38.9373
rfingers 7.12502
rthumb 6.81019 -68.8078
lclavicle -1.77974e-014 1.37161e-014
lhumerus -50.1143 7.13494 88.8312
lradius 40.0469
lwrist 22.7115
lhand -22.4047 -17.0701
lfingers 7.12502
lthumb 4.01794 12.8717
rfemur 21.1692 2.18395 18.273
rtibia -8.98554
rfoot -16.575 -11.7385
rtoes 9.90383
lfemur 26.3216 -8.35859 -17.4506
ltibia -18.9298
lfoot -8.44559 24.2721
ltoes -7.75828
1077
root -1.07821 17.9255 6.68871 -3.73895 -4.09628 -2.40662
lowerback 0.774076 1.77323 0.896593
upperback 2.4586 2.33646 1.46159
thorax 2.06125 1.16934 1.02034
lowerneck -16.5323 -1.69887 -1.49869
upperneck 34.0553 -2.54888 1.38883
head 14.5384 -1.09075 0.397165
rclavicle -2.4171e-014 -2.18663e-015
rhumerus -59.6971 -13.9593 -77.1443
rradius 45.1332
rwrist -13.7682
rhand -18.3236 -37.9736
rfingers 7.12502
rthumb 7.95805 -67.8038
lclavicle -2.4171e-014 -2.18663e-015
lhumerus -51.9573 8.3321 87.8361
lradius 42.8491
lwrist 23.0854
lhand -21.6544 -17.388
lfingers 7.12502
lthumb 4.74249 12.5389
rfemur 20.6191 2.21529 18.2902
rtibia -8.84404
rfoot -16.5424 -11.7435
rtoes 10.0951
lfemur 25.8382 -8.5045 -17.3867
ltibia -18.8831
lfoot -8.45588 24.4868
ltoes -7.76223
1078
root -1.08835 17.939 6.66867 -3.42801 -4.20652 -2.50114
lowerback 1.02133 1.73594 0.842367
upperback 2.2598 2.29311 1.55981
thorax 1.71246 1.14589 1.13756
lowerneck -16.3397 -1.66164 -1.4274
upperneck 33.8744 -2.4963 1.33039
head 14.4084 -1.06992 0.37093
rclavicle -6.83943e-015 -6.26172e-015
rhumerus -60.1896 -12.9319 -76.8407
rradius 46.179
rwrist -13.7096
rhand -17.5494 -36.9369
rfingers 7.12502
rthumb 8.70517 -66.7374
lclavicle -6.83943e-015 -6.26172e-015
lhumerus -53.2894 9.1016 86.9058
lradius 44.9014
lwrist 22.0073
lhand -19.8125 -17.7281
lfingers 7.12502
lthumb 6.52079 12.1515
rfemur 20.0474 2.29005 18.43
rtibia -8.56601
rfoot -16.5628 -11.7191
rtoes 10.3194
lfemur 25.4327 -8.46019 -17.173
ltibia -18.8819
lfoot -8.40861 24.5529
ltoes -7.74428
1079
root -1.094 17.9468 6.65348 -3.197 -4.35412 -2.73303
lowerback 1.1755 1.73264 1.02183
upperback 2.1363 2.29223 1.6914
thorax 1.50103 1.14714 1.16398
lowerneck -16.1174 -1.655 -1.40484
upperneck 33.6636 -2.47114 1.26905
head 14.2606 -1.06757 0.347794
rclavicle -1.95927e-014 -5.1684e-015
rhumerus -60.2108 -11.9086 -76.422
rradius 46.6256
rwrist -13.1694
rhand -17.1447 -35.9801
rfingers 7.12502
rthumb 9.09573 -65.764
lclavicle -1.95927e-014 -5.1684e-015
lhumerus -54.0969 9.18449 86.2569
lradius 46.1885
lwrist 20.3138
lhand -17.6494 -18.4014
lfingers 7.12502
lthumb 8.60872 11.4031
rfemur 19.5093 2.39082 18.7315
rtibia -8.14299
rfoot -16.6414 -11.639
rtoes 10.2969
lfemur 25.1943 -8.39382 -16.8477
ltibia -18.9172
lfoot -8.41422 24.5975
ltoes -7.50832
